<?xml version="1.0" encoding="utf-8" ?>
<svg xmlns="http://www.w3.org/2000/svg" xmlns:xlink="http://www.w3.org/1999/xlink" width="1024" height="1024">
	<path fill="#7F79C6" transform="scale(2 2)" d="M306.863 173.306C308.741 168.118 311.147 163.127 313.294 158.045L343.26 87.5973C346.483 80.0776 347.727 72.4506 357.045 70.8122C364.879 70.3707 372.294 74.902 372.191 83.5756C372.13 88.604 368.493 94.2712 366.612 98.8164L330.876 184.06C327.185 192.996 325.474 199.489 318.401 206.323C318.441 208.057 318.887 209.88 319.205 211.585C323.973 206.437 329.202 201.674 334.175 196.718L399.953 130.69C404.994 125.61 412.761 114.723 420.327 113.779C431.568 112.376 438.601 125.249 432.258 134.113C428.038 140.01 418.637 147.942 413.172 153.519L373.522 194.204C367.048 200.869 360.221 207.24 354.099 214.242L448.592 214.242C448.637 241.326 447.193 265.379 438.989 291.506C422.514 343.97 387.581 384.642 338.537 410.265L338.537 430.435L319.205 430.435L173.801 430.435C173.963 423.727 173.805 416.978 173.801 410.265C154.841 399.127 136.632 387.466 120.969 371.775C76.4869 327.217 63.211 274.558 63.2658 214.242L102.408 214.242C100.667 177.891 122.106 139.922 152.911 121.268C210.184 86.5875 281.958 111.359 306.863 173.306ZM132.709 186.249L132.709 186.249L132.709 186.249C149.159 161.045 172.801 142.098 203.911 156.594C226.467 167.104 237.343 192.324 245.398 214.242C250.1 214.451 254.874 214.253 259.585 214.25L288.01 214.242C288.055 207.777 288.2 201.718 287.169 195.285C276.778 136.495 202.6 111.57 156.592 149.626C148.031 156.707 133.829 174.524 132.709 186.249ZM182.906 178.114C164.915 178.95 153.852 199.141 149.018 214.242L183.875 214.242L217.55 214.242C212.682 198.894 201.484 177.915 182.906 178.114ZM98.3622 239.622L89.304 239.622C89.1859 250.729 92.3954 267.937 95.4261 278.694C106.677 279.099 118.593 278.691 129.904 278.692L413.716 278.694C414.492 278.711 415.622 278.886 416.267 278.438C419.834 269.361 422.612 248.802 422.486 239.622L98.3622 239.622Z"/>
</svg>
