<?xml version="1.0" encoding="utf-8" ?>
<svg xmlns="http://www.w3.org/2000/svg" xmlns:xlink="http://www.w3.org/1999/xlink" width="1024" height="1024">
	<path fill="#7F79C6" transform="scale(2 2)" d="M256.15 434.784L252.918 434.819C206.895 434.909 158.213 414.063 125.759 381.597C11.3651 267.159 93.1584 66.7245 256.15 66.7064C268.266 66.1541 280.828 68.0114 292.644 70.5361C378.756 88.9351 440.159 164.681 440.012 253.111C439.846 353.477 356.116 434.997 256.15 434.784ZM256.15 116.611C222.398 118.514 205.065 204.65 205.774 236.541L255.375 236.541L305.936 236.541C305.856 210.569 291.844 117.372 256.15 116.611ZM205.774 122.378C192.831 125.838 174.334 138.814 164.736 147.965C142.216 169.433 126.947 197.305 122.032 228.154C121.79 229.677 120.305 235.419 121.329 236.541L177.476 236.541C175.978 206.65 188.146 160.767 200.007 134.502C200.828 132.685 206.175 122.893 205.774 122.378ZM305.299 122.378C321.626 149.166 336.567 203.649 334.821 236.541L392.063 236.541C386.782 189.368 351.901 137.345 305.299 122.378ZM270.82 265.192L205.774 265.192C205.539 297.515 218.892 360.666 245.217 381.782C258.016 391.078 271.123 381.313 278.886 370.348C293.365 349.897 308.351 292.229 305.936 265.192C294.235 265.053 282.523 265.205 270.82 265.192ZM335.194 265.192C335.317 296.343 323.192 351.426 305.936 379.068C319.16 374.731 331.844 366.8 342.614 358.079C371.298 334.323 388.253 302.198 392.063 265.192L354.337 265.182C347.982 265.181 341.542 264.962 335.194 265.192ZM121.329 265.192C119.745 278.916 129.282 303.678 135.563 315.853C147.152 338.314 165.868 358.035 188.001 370.236C193.696 373.376 199.929 375.428 205.358 379.068C202.539 372.478 198.675 366.451 195.998 359.761C183.973 329.707 178.598 297.408 176.987 265.192C158.495 264.969 139.818 264.765 121.329 265.192Z"/>
</svg>
