<?xml version="1.0" encoding="utf-8" ?>
<svg xmlns="http://www.w3.org/2000/svg" xmlns:xlink="http://www.w3.org/1999/xlink" width="1024" height="1024">
	<path fill="#7F79C6" transform="scale(2 2)" d="M263.433 453.759C252.785 459.636 243.885 450.922 235.209 445.399C162.831 399.319 83.1456 333.795 75.7429 242.338C68.53 153.227 126.502 71.5191 213.882 50.6428C225.001 47.9861 236.098 46.6699 247.47 45.7536C351.046 42.1198 437.893 123.253 437.512 228.766C437.401 259.505 431.342 283.819 416.914 310.406C384.693 369.782 321.35 419.124 263.433 453.759ZM251.435 82.3079C244.616 82.6981 237.84 83.1632 231.106 84.3705C159.763 97.1627 107.851 163.198 112.103 235.626C116.277 306.718 168.823 361.361 239.125 369.486C246.345 370.321 253.748 370.875 261.018 370.491C341.515 368.321 402.053 301.911 399.861 221.801C397.687 142.307 329.889 81.3459 251.435 82.3079Z"/>
	<path fill="#7F79C6" transform="scale(2 2)" d="M218.328 175.22C212.715 175.285 184.564 174.525 181.355 172.117C176.332 168.347 184.051 159.984 186.678 157.045C194.023 148.824 203.35 142.921 214.545 142.307C227.643 139.288 245.922 147.507 255.932 155.542C303.036 117.463 346.145 171.438 328.636 174.145C321.156 175.302 302.025 175.617 294.629 175.22C307.093 185.073 317.518 193.062 322.861 209.245C325.03 215.814 327.025 227.818 318.547 230.633C313.204 229.303 292.276 217.615 287.415 214.652C281.229 210.881 274.174 205.422 267.763 202.526L267.763 269.175L361.945 269.175C351.834 296.773 328.49 318.747 302.26 330.99C243.811 357.768 173.531 327.582 148.799 269.175L244.336 269.175L244.336 202.526C233.279 208.438 201.823 231.159 193.463 229.584C186.832 228.335 188.749 217.117 189.643 212.691C193.095 195.593 204.35 184.474 218.328 175.22Z"/>
</svg>
