<svg width="148" height="42" viewBox="0 0 148 42" fill="none" xmlns="http://www.w3.org/2000/svg">
<path d="M2.1067 23.4012V6.47023H6.00532V17.4996L14.0931 6.47023H17.7738V23.4012H13.8994V12.3961L5.8116 23.4012H2.1067ZM31.6318 14.5729C33.5932 15.2501 34.7797 16.7498 34.7797 18.6605C34.7797 21.8532 31.2928 23.6915 27.2247 23.6915C24.9727 23.6915 22.5754 23.1351 20.4687 21.9258L21.6794 19.1201C23.2292 20.0634 25.118 20.4988 26.7646 20.4988C28.9924 20.4988 30.8085 19.6764 30.8085 18.1042C30.8085 16.8223 29.6462 16.1934 27.8785 16.1934H23.7377V13.2426H27.5879C29.1861 13.2426 30.1062 12.5412 30.1062 11.4286C30.1062 10.0499 28.6049 9.32431 26.6919 9.32431C25.2632 9.32431 23.5924 9.7113 22.1395 10.5337L20.953 7.48609C22.7933 6.54279 24.8274 6.10742 26.7646 6.10742C30.6874 6.10742 34.0775 7.89727 34.0775 10.969C34.0775 12.6138 33.1331 13.9199 31.6318 14.5729ZM37.8853 23.4012V6.47023H41.7839V17.4996L49.8717 6.47023H53.5524V23.4012H49.678V12.3961L41.5902 23.4012H37.8853Z" fill="#FF4B76"/>
<path d="M72.6599 14.5729C74.7181 15.1776 75.8562 16.5804 75.8562 18.6363C75.8562 21.5872 73.5558 23.4012 69.2698 23.4012H60.9156V6.47023H68.8097C72.7325 6.47023 75.0572 8.04239 75.0572 10.8481C75.0572 12.5654 74.1612 13.8473 72.6599 14.5729ZM64.8142 9.37268V13.4845H68.4707C70.1657 13.4845 71.0617 12.7831 71.0617 11.4286C71.0617 10.0983 70.1657 9.37268 68.4707 9.37268H64.8142ZM69.1245 20.4988C70.9406 20.4988 71.885 19.7973 71.885 18.3219C71.885 16.8949 70.9406 16.2176 69.1245 16.2176H64.8142V20.4988H69.1245ZM78.9586 23.4012V6.47023H82.8572V17.4996L90.9453 6.47023H94.6256V23.4012H90.7512V12.3961L82.6635 23.4012H78.9586ZM108.484 14.5729C110.445 15.2501 111.632 16.7498 111.632 18.6605C111.632 21.8532 108.145 23.6915 104.076 23.6915C101.825 23.6915 99.4275 23.1351 97.3207 21.9258L98.5315 19.1201C100.081 20.0634 101.97 20.4988 103.617 20.4988C105.844 20.4988 107.661 19.6764 107.661 18.1042C107.661 16.8223 106.498 16.1934 104.73 16.1934H100.589V13.2426H104.44C106.038 13.2426 106.958 12.5412 106.958 11.4286C106.958 10.0499 105.457 9.32431 103.544 9.32431C102.115 9.32431 100.444 9.7113 98.9913 10.5337L97.805 7.48609C99.6452 6.54279 101.679 6.10742 103.617 6.10742C107.539 6.10742 110.929 7.89727 110.929 10.969C110.929 12.6138 109.985 13.9199 108.484 14.5729ZM114.737 23.4012V6.47023H118.636V17.4996L126.724 6.47023H130.404V23.4012H126.53V12.3961L118.442 23.4012H114.737ZM147.58 6.47023V9.66293H142.155V23.4012H138.281V9.66293H132.881V6.47023H147.58Z" fill="#484746"/>
<path d="M141.881 29.9065H7.25576C3.92443 29.9065 1.22386 32.604 1.22386 35.9314C1.22386 39.2589 3.92443 41.9564 7.25576 41.9564H141.881C145.212 41.9564 147.913 39.2589 147.913 35.9314C147.913 32.604 145.212 29.9065 141.881 29.9065Z" fill="#FF4B76"/>
<path d="M8.85413 35.5435V36.3852H6.45316V35.5435H8.85413ZM4.87832 36.9013H5.90887C5.94202 37.2508 6.05346 37.5157 6.24318 37.6961C6.43474 37.8764 6.72577 37.9666 7.11625 37.9666C7.41833 37.9666 7.6633 37.8911 7.85118 37.7402C8.03905 37.5875 8.17627 37.376 8.26284 37.1055C8.34941 36.835 8.3927 36.5205 8.3927 36.1617V35.6484C8.3927 35.2712 8.34389 34.9483 8.24627 34.6797C8.14865 34.4112 8.00314 34.206 7.80973 34.0643C7.61633 33.9208 7.37688 33.8491 7.09139 33.8491C6.82063 33.8491 6.60236 33.8923 6.43659 33.9788C6.27081 34.0652 6.14648 34.1903 6.0636 34.3541C5.98071 34.516 5.92729 34.7101 5.90335 34.9364H4.8728C4.90963 34.5684 5.01462 34.2382 5.18777 33.9457C5.3609 33.6531 5.60495 33.4223 5.91992 33.253C6.23489 33.0819 6.62538 32.9963 7.09139 32.9963C7.56476 32.9963 7.97459 33.1049 8.32086 33.3219C8.66899 33.539 8.93787 33.8463 9.12766 34.2437C9.31919 34.6411 9.41501 35.1084 9.41501 35.6457V36.17C9.41501 36.7072 9.32103 37.1735 9.13317 37.5691C8.94714 37.9628 8.6828 38.2674 8.34021 38.4826C7.99761 38.696 7.58962 38.8027 7.11625 38.8027C6.65762 38.8027 6.26713 38.7218 5.94479 38.5599C5.62246 38.3961 5.37196 38.1717 5.19329 37.8865C5.01462 37.5995 4.90963 37.2711 4.87832 36.9013ZM14.3229 38.7255L12.4607 36.2555H11.9578V38.7255H10.9328V33.0736H11.9578V35.3972H12.2148L14.2262 33.0736H15.4888L13.2537 35.6512L15.5855 38.7255H14.3229ZM21.3658 34.9806H20.3325C20.303 34.8112 20.2486 34.6613 20.1694 34.5307C20.0902 34.3982 19.9917 34.286 19.8738 34.194C19.7559 34.102 19.6215 34.0331 19.4704 33.987C19.3212 33.9392 19.1601 33.9153 18.9869 33.9153C18.6793 33.9153 18.4067 33.9925 18.1691 34.1471C17.9315 34.2998 17.7455 34.5242 17.611 34.8205C17.4766 35.1148 17.4094 35.4745 17.4094 35.8995C17.4094 36.3319 17.4766 36.6962 17.611 36.9924C17.7473 37.2867 17.9334 37.5094 18.1691 37.6602C18.4067 37.8092 18.6784 37.8837 18.9842 37.8837C19.1536 37.8837 19.312 37.8617 19.4594 37.8175C19.6086 37.7715 19.7421 37.7044 19.86 37.6161C19.9797 37.5277 20.0801 37.4192 20.1611 37.2904C20.2441 37.1616 20.3012 37.0145 20.3325 36.8489L21.3658 36.8544C21.3271 37.123 21.2433 37.3751 21.1143 37.6106C20.9872 37.8461 20.8205 38.0539 20.6143 38.2342C20.408 38.4127 20.1667 38.5525 19.8904 38.6537C19.6142 38.753 19.3074 38.8027 18.9704 38.8027C18.4731 38.8027 18.0292 38.6877 17.6387 38.4577C17.2482 38.2278 16.9405 37.8957 16.7159 37.4615C16.4911 37.0273 16.3788 36.5066 16.3788 35.8995C16.3788 35.2905 16.4921 34.7699 16.7186 34.3375C16.9452 33.9033 17.2537 33.5712 17.6442 33.3412C18.0347 33.1113 18.4767 32.9963 18.9704 32.9963C19.2854 32.9963 19.5782 33.0404 19.849 33.1288C20.1197 33.2171 20.361 33.3468 20.5729 33.5179C20.7847 33.6872 20.9587 33.8951 21.095 34.1416C21.2332 34.3863 21.3235 34.6659 21.3658 34.9806ZM26.2391 38.7255L24.377 36.2555H23.8742V38.7255H22.8491V33.0736H23.8742V35.3972H24.1311L26.1424 33.0736H27.4051L25.1699 35.6512L27.5018 38.7255H26.2391ZM29.2482 38.8027V37.9417H29.5715C29.7171 37.9417 29.8367 37.9206 29.9307 37.8782C30.0246 37.8359 30.1001 37.7752 30.1572 37.6961C30.2162 37.6169 30.265 37.525 30.3036 37.4201L30.3783 37.2297L28.3559 33.0736H29.4279L30.8369 36.0982L32.0553 33.0736H33.1107L31.1602 37.6823C31.0699 37.881 30.9658 38.0659 30.848 38.237C30.7301 38.4062 30.5763 38.5433 30.3866 38.6482C30.1986 38.7512 29.9537 38.8027 29.6517 38.8027H29.2482ZM34.3855 38.7255V33.0736H36.5074C36.942 33.0736 37.3068 33.1546 37.6014 33.3164C37.898 33.4783 38.1218 33.701 38.2728 33.9843C38.4257 34.2658 38.5021 34.5859 38.5021 34.9447C38.5021 35.3071 38.4257 35.6291 38.2728 35.9106C38.1199 36.1921 37.8943 36.4137 37.5959 36.5757C37.2976 36.7357 36.9301 36.8157 36.4936 36.8157H35.0873V35.9741H36.3554C36.6096 35.9741 36.8177 35.9299 36.9798 35.8416C37.1419 35.7532 37.2617 35.6319 37.339 35.4773C37.4182 35.3228 37.4578 35.1452 37.4578 34.9447C37.4578 34.7441 37.4182 34.5675 37.339 34.4148C37.2617 34.2621 37.141 34.1434 36.977 34.0588C36.8149 33.9723 36.6059 33.9291 36.3499 33.9291H35.4105V38.7255H34.3855ZM44.7805 34.9806H43.7472C43.7177 34.8112 43.6633 34.6613 43.5841 34.5307C43.5049 34.3982 43.4064 34.286 43.2885 34.194C43.1706 34.102 43.0362 34.0331 42.8851 33.987C42.7359 33.9392 42.5748 33.9153 42.4016 33.9153C42.094 33.9153 41.8214 33.9925 41.5838 34.1471C41.3462 34.2998 41.1602 34.5242 41.0257 34.8205C40.8913 35.1148 40.824 35.4745 40.824 35.8995C40.824 36.3319 40.8913 36.6962 41.0257 36.9924C41.162 37.2867 41.348 37.5094 41.5838 37.6602C41.8214 37.8092 42.0931 37.8837 42.3988 37.8837C42.5683 37.8837 42.7267 37.8617 42.874 37.8175C43.0232 37.7715 43.1568 37.7044 43.2747 37.6161C43.3944 37.5277 43.4948 37.4192 43.5758 37.2904C43.6587 37.1616 43.7158 37.0145 43.7472 36.8489L44.7805 36.8544C44.7418 37.123 44.658 37.3751 44.529 37.6106C44.4019 37.8461 44.2352 38.0539 44.0289 38.2342C43.8227 38.4127 43.5813 38.5525 43.3051 38.6537C43.0288 38.753 42.7221 38.8027 42.385 38.8027C41.8877 38.8027 41.4439 38.6877 41.0534 38.4577C40.6629 38.2278 40.3552 37.8957 40.1306 37.4615C39.9058 37.0273 39.7935 36.5066 39.7935 35.8995C39.7935 35.2905 39.9068 34.7699 40.1333 34.3375C40.3599 33.9033 40.6684 33.5712 41.0589 33.3412C41.4494 33.1113 41.8914 32.9963 42.385 32.9963C42.7 32.9963 42.9928 33.0404 43.2636 33.1288C43.5344 33.2171 43.7757 33.3468 43.9875 33.5179C44.1993 33.6872 44.3734 33.8951 44.5097 34.1416C44.6478 34.3863 44.7381 34.6659 44.7805 34.9806ZM46.2638 33.0736H47.2805V36.9261H47.333L49.9937 33.0736H50.9137V38.7255H49.8887V34.8757H49.8417L47.1728 38.7255H46.2638V33.0736ZM52.5752 33.0736H53.5919V36.9261H53.6445L56.3051 33.0736H57.2251V38.7255H56.2001V34.8757H56.1531L53.4842 38.7255H52.5752V33.0736ZM61.3612 38.7255V33.0736H63.5272C63.9361 33.0736 64.276 33.138 64.5467 33.2668C64.8194 33.3937 65.0229 33.5676 65.1573 33.7883C65.2936 34.0091 65.3618 34.2593 65.3618 34.539C65.3618 34.769 65.3176 34.9658 65.2292 35.1296C65.1407 35.2915 65.0219 35.423 64.8728 35.5242C64.7236 35.6254 64.5569 35.698 64.3727 35.7422V35.7974C64.5735 35.8084 64.766 35.8701 64.9501 35.9824C65.1362 36.0927 65.2881 36.2491 65.406 36.4514C65.5239 36.6538 65.5828 36.8985 65.5828 37.1855C65.5828 37.478 65.5119 37.7412 65.3701 37.9748C65.2282 38.2066 65.0146 38.3897 64.7291 38.524C64.4436 38.6583 64.0844 38.7255 63.6515 38.7255H61.3612ZM62.3862 37.8699H63.4885C63.8607 37.8699 64.1286 37.7991 64.2926 37.6575C64.4583 37.5139 64.5412 37.3299 64.5412 37.1055C64.5412 36.9381 64.4998 36.7873 64.4169 36.653C64.334 36.5167 64.2161 36.41 64.0632 36.3328C63.9104 36.2537 63.728 36.2141 63.5162 36.2141H62.3862V37.8699ZM62.3862 35.4773H63.4001C63.577 35.4773 63.7363 35.4451 63.8781 35.3807C64.0199 35.3145 64.1314 35.2216 64.2124 35.1019C64.2953 34.9806 64.3367 34.837 64.3367 34.6714C64.3367 34.4525 64.2594 34.2722 64.1046 34.1305C63.9518 33.9889 63.7243 33.9181 63.4222 33.9181H62.3862V35.4773ZM69.2449 33.9319V33.0736H73.7595V33.9319H72.0106V38.7255H70.9939V33.9319H69.2449ZM75.1745 38.7255V33.0736H77.3405C77.7495 33.0736 78.0893 33.138 78.36 33.2668C78.6327 33.3937 78.8362 33.5676 78.9706 33.7883C79.1069 34.0091 79.1751 34.2593 79.1751 34.539C79.1751 34.769 79.1309 34.9658 79.0425 35.1296C78.9541 35.2915 78.8353 35.423 78.6861 35.5242C78.5369 35.6254 78.3702 35.698 78.186 35.7422V35.7974C78.3868 35.8084 78.5793 35.8701 78.7635 35.9824C78.9495 36.0927 79.1014 36.2491 79.2193 36.4514C79.3372 36.6538 79.3961 36.8985 79.3961 37.1855C79.3961 37.478 79.3252 37.7412 79.1834 37.9748C79.0415 38.2066 78.8279 38.3897 78.5424 38.524C78.257 38.6583 77.8978 38.7255 77.4649 38.7255H75.1745ZM76.1995 37.8699H77.3019C77.674 37.8699 77.942 37.7991 78.1059 37.6575C78.2716 37.5139 78.3545 37.3299 78.3545 37.1055C78.3545 36.9381 78.3131 36.7873 78.2302 36.653C78.1473 36.5167 78.0294 36.41 77.8766 36.3328C77.7237 36.2537 77.5413 36.2141 77.3295 36.2141H76.1995V37.8699ZM76.1995 35.4773H77.2134C77.3903 35.4773 77.5496 35.4451 77.6914 35.3807C77.8332 35.3145 77.9447 35.2216 78.0257 35.1019C78.1086 34.9806 78.15 34.837 78.15 34.6714C78.15 34.4525 78.0728 34.2722 77.918 34.1305C77.7651 33.9889 77.5377 33.9181 77.2355 33.9181H76.1995V35.4773ZM85.8885 35.8995C85.8885 36.5085 85.7744 37.0301 85.5459 37.4642C85.3194 37.8966 85.01 38.2278 84.6176 38.4577C84.2271 38.6877 83.7842 38.8027 83.2887 38.8027C82.7932 38.8027 82.3493 38.6877 81.957 38.4577C81.5665 38.2259 81.2571 37.8938 81.0286 37.4615C80.8021 37.0273 80.6888 36.5066 80.6888 35.8995C80.6888 35.2905 80.8021 34.7699 81.0286 34.3375C81.2571 33.9033 81.5665 33.5712 81.957 33.3412C82.3493 33.1113 82.7932 32.9963 83.2887 32.9963C83.7842 32.9963 84.2271 33.1113 84.6176 33.3412C85.01 33.5712 85.3194 33.9033 85.5459 34.3375C85.7744 34.7699 85.8885 35.2905 85.8885 35.8995ZM84.858 35.8995C84.858 35.4708 84.7908 35.1093 84.6563 34.815C84.5237 34.5187 84.3395 34.2952 84.1037 34.1444C83.8679 33.9917 83.5963 33.9153 83.2887 33.9153C82.9811 33.9153 82.7094 33.9917 82.4736 34.1444C82.2378 34.2952 82.0528 34.5187 81.9183 34.815C81.7857 35.1093 81.7193 35.4708 81.7193 35.8995C81.7193 36.3282 81.7857 36.6906 81.9183 36.9869C82.0528 37.2812 82.2378 37.5047 82.4736 37.6575C82.7094 37.8084 82.9811 37.8837 83.2887 37.8837C83.5963 37.8837 83.8679 37.8084 84.1037 37.6575C84.3395 37.5047 84.5237 37.2812 84.6563 36.9869C84.7908 36.6906 84.858 36.3282 84.858 35.8995ZM87.4023 38.7255V33.0736H91.0825V33.9319H88.4276V35.4662H90.8919V36.3246H88.4276V37.8672H91.1044V38.7255H87.4023ZM92.6727 33.0736H93.9271L95.6073 37.169H95.6729L97.3531 33.0736H98.6075V38.7255H97.6241V34.8426H97.5716L96.0077 38.7089H95.2725L93.7086 34.8343H93.6561V38.7255H92.6727V33.0736ZM106.133 38.7255L104.271 36.2555H103.768V38.7255H102.742V33.0736H103.768V35.3972H104.025L106.036 33.0736H107.299L105.063 35.6512L107.396 38.7255H106.133ZM109.363 38.7255H108.269L110.261 33.0736H111.526L113.521 38.7255H112.427L110.916 34.2327H110.871L109.363 38.7255ZM109.398 36.5094H112.383V37.3318H109.398V36.5094ZM114.811 38.7255V33.0736H116.933C117.368 33.0736 117.732 33.1546 118.027 33.3164C118.324 33.4783 118.548 33.701 118.698 33.9843C118.851 34.2658 118.928 34.5859 118.928 34.9447C118.928 35.3071 118.851 35.6291 118.698 35.9106C118.545 36.1921 118.32 36.4137 118.021 36.5757C117.723 36.7357 117.355 36.8157 116.919 36.8157H115.513V35.9741H116.781C117.035 35.9741 117.243 35.9299 117.405 35.8416C117.568 35.7532 117.688 35.6319 117.764 35.4773C117.844 35.3228 117.883 35.1452 117.883 34.9447C117.883 34.7441 117.844 34.5675 117.764 34.4148C117.688 34.2621 117.567 34.1434 117.403 34.0588C117.241 33.9723 117.031 33.9291 116.776 33.9291H115.836V38.7255H114.811ZM120.363 33.0736H121.617L123.297 37.169H123.363L125.043 33.0736H126.297V38.7255H125.314V34.8426H125.262L123.698 38.7089H122.962L121.398 34.8343H121.346V38.7255H120.363V33.0736ZM128.685 38.7255H127.59L129.583 33.0736H130.848L132.843 38.7255H131.749L130.237 34.2327H130.194L128.685 38.7255ZM128.721 36.5094H131.704V37.3318H128.721V36.5094ZM134.133 38.7255V33.0736H135.158V35.4662H137.78V33.0736H138.808V38.7255H137.78V36.3246H135.158V38.7255H134.133ZM140.467 38.7255V33.0736H144.147V33.9319H141.492V35.4662H143.957V36.3246H141.492V37.8672H144.169V38.7255H140.467Z" fill="white"/>
</svg>
