<svg width="1200" height="1200" viewBox="0 0 1200 1200" fill="none" xmlns="http://www.w3.org/2000/svg">
<rect x="2.5" y="2.5" width="1195" height="1195" rx="47.5" fill="white"/>
<rect x="2.5" y="2.5" width="1195" height="1195" rx="47.5" stroke="#6887B6" stroke-width="5"/>
<path d="M705.906 362.77H748.647V490.203H750.329L837.89 362.77H875.387V565.396H832.547V437.865H831.063L743.008 565.396H705.906V362.77Z" fill="#FF4B76"/>
<path d="M595.961 568.166C581.186 568.166 568.027 565.627 556.484 560.548C545.007 555.403 535.938 548.346 529.276 539.375C522.68 530.339 519.283 519.917 519.085 508.111H562.223C562.486 513.058 564.102 517.411 567.071 521.171C570.105 524.864 574.128 527.734 579.141 529.778C584.154 531.823 589.793 532.845 596.06 532.845C602.589 532.845 608.361 531.691 613.374 529.383C618.387 527.074 622.311 523.875 625.147 519.786C627.984 515.696 629.402 510.98 629.402 505.637C629.402 500.229 627.885 495.447 624.851 491.291C621.882 487.07 617.595 483.772 611.989 481.397C606.448 479.023 599.852 477.836 592.201 477.836H573.304V446.373H592.201C598.665 446.373 604.37 445.252 609.317 443.009C614.33 440.767 618.222 437.667 620.992 433.709C623.762 429.686 625.147 425.003 625.147 419.66C625.147 414.581 623.927 410.129 621.487 406.303C619.112 402.412 615.748 399.378 611.395 397.201C607.108 395.024 602.095 393.936 596.356 393.936C590.552 393.936 585.242 394.991 580.427 397.102C575.612 399.147 571.754 402.082 568.851 405.907C565.949 409.733 564.399 414.218 564.201 419.363H523.142C523.34 407.688 526.671 397.399 533.135 388.494C539.599 379.59 548.305 372.631 559.254 367.618C570.27 362.539 582.703 360 596.554 360C610.538 360 622.773 362.539 633.26 367.618C643.748 372.697 651.894 379.557 657.698 388.197C663.569 396.772 666.471 406.402 666.405 417.087C666.471 428.432 662.942 437.898 655.818 445.483C648.761 453.068 639.559 457.883 628.215 459.928V461.511C643.121 463.424 654.466 468.601 662.249 477.044C670.098 485.421 673.99 495.908 673.924 508.507C673.99 520.049 670.659 530.306 663.931 539.276C657.269 548.247 648.068 555.304 636.327 560.449C624.587 565.594 611.131 568.166 595.961 568.166Z" fill="#FF4B76"/>
<path d="M317.375 362.77H360.116V490.203H361.798L449.358 362.77H486.856V565.396H444.016V437.865H442.532L354.476 565.396H317.375V362.77Z" fill="#FF4B76"/>
<path d="M901.889 660.249V624.927H1068.3V660.249H1006.27V827.553H963.923V660.249H901.889Z" fill="#484746"/>
<path d="M704.729 624.927H747.471V752.36H749.153L836.713 624.927H874.211V827.553H831.371V700.022H829.887L741.831 827.553H704.729V624.927Z" fill="#484746"/>
<path d="M594.784 830.323C580.01 830.323 566.851 827.784 555.308 822.705C543.831 817.56 534.762 810.503 528.1 801.532C521.504 792.496 518.107 782.074 517.909 770.268H561.046C561.31 775.215 562.926 779.568 565.894 783.328C568.928 787.021 572.952 789.891 577.965 791.935C582.978 793.98 588.617 795.002 594.883 795.002C601.413 795.002 607.185 793.848 612.198 791.54C617.21 789.231 621.135 786.032 623.971 781.943C626.807 777.853 628.226 773.137 628.226 767.794C628.226 762.386 626.708 757.604 623.674 753.448C620.706 749.227 616.419 745.929 610.812 743.554C605.272 741.18 598.676 739.993 591.025 739.993H572.127V708.53H591.025C597.489 708.53 603.194 707.409 608.141 705.166C613.154 702.924 617.045 699.824 619.816 695.866C622.586 691.843 623.971 687.16 623.971 681.817C623.971 676.738 622.751 672.286 620.31 668.46C617.936 664.569 614.572 661.534 610.219 659.358C605.931 657.181 600.919 656.093 595.18 656.093C589.376 656.093 584.066 657.148 579.251 659.259C574.436 661.304 570.577 664.239 567.675 668.064C564.773 671.89 563.223 676.375 563.025 681.52H521.966C522.164 669.845 525.494 659.556 531.958 650.651C538.422 641.747 547.129 634.788 558.078 629.775C569.093 624.696 581.527 622.157 595.378 622.157C609.361 622.157 621.597 624.696 632.084 629.775C642.572 634.854 650.718 641.714 656.522 650.354C662.392 658.929 665.294 668.559 665.229 679.244C665.294 690.589 661.766 700.055 654.642 707.64C647.584 715.225 638.383 720.04 627.038 722.085V723.668C641.945 725.581 653.29 730.758 661.073 739.201C668.922 747.578 672.814 758.065 672.748 770.664C672.814 782.206 669.483 792.463 662.755 801.433C656.093 810.404 646.892 817.461 635.151 822.606C623.411 827.751 609.955 830.323 594.784 830.323Z" fill="#484746"/>
<path d="M316.199 624.927H358.94V752.36H360.622L448.183 624.927H485.68V827.553H442.84V700.022H441.356L353.301 827.553H316.199V624.927Z" fill="#484746"/>
<path d="M132 827.553V624.927H213.13C228.036 624.927 240.469 627.137 250.429 631.556C260.389 635.976 267.875 642.11 272.888 649.959C277.901 657.742 280.408 666.712 280.408 676.87C280.408 684.785 278.825 691.744 275.659 697.746C272.493 703.682 268.139 708.563 262.599 712.389C257.124 716.149 250.858 718.82 243.8 720.403V722.382C251.518 722.712 258.74 724.888 265.468 728.912C272.262 732.935 277.769 738.575 281.991 745.83C286.212 753.02 288.323 761.594 288.323 771.554C288.323 782.306 285.651 791.903 280.309 800.345C275.032 808.722 267.216 815.351 256.86 820.232C246.505 825.113 233.742 827.553 218.571 827.553H132ZM174.84 792.529H209.766C221.704 792.529 230.411 790.254 235.885 785.702C241.36 781.085 244.097 774.951 244.097 767.3C244.097 761.693 242.745 756.746 240.041 752.459C237.336 748.172 233.478 744.808 228.465 742.367C223.518 739.927 217.615 738.707 210.755 738.707H174.84V792.529ZM174.84 709.718H206.6C212.47 709.718 217.681 708.695 222.232 706.651C226.849 704.54 230.477 701.572 233.115 697.746C235.819 693.921 237.172 689.336 237.172 683.994C237.172 676.672 234.566 670.769 229.355 666.284C224.211 661.799 216.889 659.556 207.391 659.556H174.84V709.718Z" fill="#484746"/>
</svg>
