<svg width="27" height="27" viewBox="0 0 27 27" fill="none" xmlns="http://www.w3.org/2000/svg">
<path fill-rule="evenodd" clip-rule="evenodd" d="M12 24C5.3725 24 0 18.6275 0 12C0 5.3725 5.3725 0 12 0C18.6275 0 24 5.3725 24 12C24 18.6275 18.6275 24 12 24ZM10.61 7.9155H12.28C13.8145 7.9155 14.5855 8.719 14.5855 9.991C14.5855 11.271 13.8145 12.0825 12.2715 12.0825H10.61V7.9155ZM12.709 13.514C14.9195 13.514 16.375 12.019 16.375 9.983C16.375 7.9395 14.9515 6.4285 12.765 6.4285H8.8525V12.6075H7.285V13.514H8.852V15.0565H7.285V15.955H8.852V17.6885H10.609V15.955H13.798V15.0565H10.609V13.514H12.709Z" fill="#7F79C6"/>
<circle cx="11" cy="11" r="10" fill="#7F79C6"/>
<path d="M9.84479 10.0222C7.83792 9.49778 7.19253 8.95556 7.19253 8.11111C7.19253 7.14222 8.08546 6.46667 9.57957 6.46667C11.1532 6.46667 11.7367 7.22222 11.7898 8.33333H13.7436C13.6817 6.80444 12.7534 5.4 10.9057 4.94667V3H8.25344V4.92C6.53831 5.29333 5.15914 6.41333 5.15914 8.12889C5.15914 10.1822 6.84774 11.2044 9.31434 11.8C11.5246 12.3333 11.9666 13.1156 11.9666 13.9422C11.9666 14.5556 11.5334 15.5333 9.57957 15.5333C7.75835 15.5333 7.04224 14.7156 6.94499 13.6667H5C5.10609 15.6133 6.55599 16.7067 8.25344 17.0711V19H10.9057V17.0889C12.6297 16.76 14 15.7556 14 13.9333C14 11.4089 11.8517 10.5467 9.84479 10.0222Z" fill="white"/>
<g clip-path="url(#clip0_2278_16)">
<circle cx="19" cy="19" r="8" fill="white"/>
<path d="M13 19C13 19.7879 13.1552 20.5681 13.4567 21.2961C13.7583 22.0241 14.2002 22.6855 14.7574 23.2426C15.3145 23.7998 15.9759 24.2417 16.7039 24.5433C17.4319 24.8448 18.2121 25 19 25C19.7879 25 20.5681 24.8448 21.2961 24.5433C22.0241 24.2417 22.6855 23.7998 23.2426 23.2426C23.7998 22.6855 24.2417 22.0241 24.5433 21.2961C24.8448 20.5681 25 19.7879 25 19C25 17.4087 24.3679 15.8826 23.2426 14.7574C22.1174 13.6321 20.5913 13 19 13C17.4087 13 15.8826 13.6321 14.7574 14.7574C13.6321 15.8826 13 17.4087 13 19Z" stroke="#7F79C6" stroke-width="2" stroke-linecap="round" stroke-linejoin="round"/>
<path d="M19 15.6667V19.0001L21 21.0001" stroke="#7F79C6" stroke-width="2" stroke-linecap="round" stroke-linejoin="round"/>
</g>
<defs>
<clipPath id="clip0_2278_16">
<rect width="16" height="16" fill="white" transform="translate(11 11)"/>
</clipPath>
</defs>
</svg>
