<svg width="30" height="20" viewBox="0 0 30 20" fill="none" xmlns="http://www.w3.org/2000/svg">
<path d="M24.5446 0H4.5452C3.62295 0 2.84116 0.211812 2.198 0.5818C5.94561 2.92082 14.919 8.51883 16.7235 9.64971C16.793 9.69644 16.8463 9.76361 16.876 9.84193C16.9057 9.92026 16.9104 10.0059 16.8894 10.087C16.8885 10.0915 16.8876 10.1301 16.8876 10.1301C16.843 10.2847 16.6989 10.4542 16.5376 10.4542H7.27057C7.41238 10.4542 15.993 19.1131 16.1948 19.3503C16.3017 19.4753 16.3403 19.6117 16.2512 19.7612C16.1876 19.8712 16.0667 19.9994 15.9389 19.9994H24.5446C27.5568 19.9994 29.0899 17.7608 29.0899 14.9995V4.99985C29.0899 2.23857 27.5568 0 24.5446 0Z" fill="#E6E7E8"/>
<path d="M16.2513 19.763C16.3404 19.6135 16.3018 19.4771 16.195 19.3521C15.9913 19.114 7.4125 10.4556 7.27069 10.4556H16.5377C16.699 10.4556 16.8431 10.286 16.8881 10.1315C16.8881 10.1315 16.889 10.0929 16.8899 10.0883C16.911 10.0072 16.9063 9.92161 16.8766 9.84329C16.8469 9.76497 16.7936 9.6978 16.724 9.65107C14.9195 8.52019 5.94618 2.92173 2.19857 0.58316C0.739523 1.42268 0 3.0849 0 5.00121V15.0009C0 17.7622 1.53313 20.0007 4.54532 20.0007H15.9404C16.0681 20.0007 16.1891 19.8726 16.2527 19.763" fill="#003892"/>
<path d="M0.90918 15.4541C0.90918 16.4059 1.67734 19.0903 4.17635 19.0903H14.5269C14.5315 19.0903 14.5333 19.0749 14.5383 19.069C11.3661 15.8972 8.19532 12.7269 5.01496 9.54516H14.5142C14.5151 9.54516 14.5151 9.46061 14.5183 9.45652C10.3912 6.87115 6.18993 4.2535 2.05278 1.65676C1.6737 2.04584 0.90918 2.99581 0.90918 4.60076V15.4527" fill="#DB143C"/>
</svg>
