<svg width="30" height="20" viewBox="0 0 30 20" fill="none" xmlns="http://www.w3.org/2000/svg">
<path d="M24.5438 0H4.54511C3.6229 0 2.84114 0.211804 2.198 0.581779C5.94547 2.92071 14.9185 8.51852 16.7229 9.64935C16.7925 9.69608 16.8458 9.76325 16.8755 9.84157C16.9052 9.91989 16.9099 10.0055 16.8888 10.0866C16.8879 10.0911 16.887 10.1298 16.887 10.1298C16.8425 10.2843 16.6984 10.4538 16.537 10.4538H7.27038C7.41219 10.4538 15.9925 19.1124 16.1943 19.3496C16.3011 19.4746 16.3398 19.611 16.2507 19.7605C16.1871 19.8705 16.0662 19.9987 15.9384 19.9987H24.5438C27.5558 19.9987 29.0889 17.7602 29.0889 14.999V4.99966C29.0889 2.23849 27.5558 0 24.5438 0Z" fill="#E6E7E8"/>
<path d="M16.2507 19.7623C16.3398 19.6128 16.3012 19.4764 16.1944 19.3514C15.9907 19.1132 7.41223 10.4552 7.27042 10.4552H16.5371C16.6984 10.4552 16.8425 10.2857 16.8875 10.1311C16.8875 10.1311 16.8884 10.0925 16.8893 10.0879C16.9103 10.0068 16.9057 9.92123 16.876 9.84291C16.8462 9.76459 16.7929 9.69743 16.7234 9.6507C14.919 8.51986 5.94596 2.9216 2.19849 0.583122C0.739496 1.42261 0 3.08477 0 5.00101V15.0003C0 17.7615 1.53308 20 4.54515 20H15.9398C16.0676 20 16.1885 19.8718 16.2521 19.7623" fill="#003892"/>
<path d="M0.90918 15.4535C0.90918 16.4053 1.67731 19.0896 4.17623 19.0896H14.5264C14.531 19.0896 14.5328 19.0742 14.5378 19.0683C11.3658 15.8967 8.19505 12.7264 5.01481 9.54482H14.5137C14.5146 9.54482 14.5146 9.46028 14.5178 9.45619C10.3908 6.87091 6.18973 4.25336 2.05274 1.65672C1.67367 2.04578 0.90918 2.99572 0.90918 4.60061V15.4522" fill="#DB143C"/>
<path fill-rule="evenodd" clip-rule="evenodd" d="M5.52286 11.6461L5.46786 12.1133C5.44059 12.3292 5.41559 12.5437 5.38469 12.7578C5.37605 12.8142 5.40605 12.801 5.43786 12.7969C5.78754 12.752 6.13736 12.7084 6.48734 12.666C6.49643 12.6637 6.50779 12.666 6.5187 12.666C6.52916 12.6905 6.50688 12.7028 6.49507 12.7178C6.29053 12.9914 6.08434 13.2647 5.87647 13.5378C5.84147 13.5823 5.84511 13.5991 5.89874 13.6196C6.20721 13.7493 6.51522 13.8794 6.82277 14.01C6.84641 14.0209 6.87595 14.0264 6.90004 14.0532C6.67824 14.1482 6.45689 14.2404 6.23736 14.3336C6.12646 14.3809 6.01555 14.4313 5.90283 14.4741C5.84602 14.4954 5.84011 14.5127 5.87829 14.5627C6.08464 14.829 6.28553 15.1004 6.48916 15.3699C6.50188 15.3872 6.52279 15.4008 6.52416 15.4335C6.33508 15.4096 6.14797 15.3869 5.96283 15.3654C5.78557 15.3431 5.61058 15.3204 5.43423 15.2972C5.38514 15.2904 5.3806 15.3049 5.38787 15.349C5.43286 15.6922 5.47377 16.0349 5.51559 16.3762C5.51831 16.3948 5.51831 16.4121 5.51968 16.4317C5.48968 16.4371 5.4765 16.4153 5.45786 16.403C5.19106 16.2017 4.92199 16.0012 4.65837 15.7958C4.59429 15.7481 4.58201 15.7672 4.55701 15.8281C4.43202 16.1317 4.30203 16.4348 4.1725 16.7366C4.1634 16.7607 4.15204 16.783 4.1375 16.8171C4.12204 16.7839 4.10932 16.7616 4.10023 16.7362C3.96933 16.4298 3.83706 16.1226 3.71116 15.814C3.68616 15.7526 3.66753 15.7562 3.62071 15.7917C3.35664 15.9949 3.08802 16.1953 2.82031 16.3967C2.80031 16.4117 2.78532 16.4344 2.75123 16.4344L2.83531 15.7612C2.85077 15.6281 2.86531 15.4949 2.88667 15.3626C2.89622 15.2985 2.87667 15.2922 2.8185 15.2999C2.46488 15.3458 2.10945 15.389 1.75266 15.4335C1.74584 15.404 1.76857 15.3899 1.7822 15.3731C1.98537 15.1013 2.18854 14.829 2.39671 14.5595C2.43125 14.5122 2.42625 14.4959 2.37398 14.4754C2.06446 14.3477 1.75811 14.2154 1.4495 14.085C1.42495 14.0754 1.3995 14.0623 1.3645 14.0477C1.66585 13.9205 1.95764 13.7959 2.24808 13.6737C2.27171 13.6624 2.2952 13.6518 2.31853 13.6418C2.4367 13.5909 2.4367 13.5909 2.35671 13.4859C2.16482 13.2337 1.97378 12.9808 1.78356 12.7274C1.77129 12.711 1.75084 12.696 1.74857 12.6633C1.89765 12.6802 2.04552 12.6978 2.19217 12.716C2.4067 12.7411 2.62093 12.7689 2.83486 12.7992C2.89804 12.8078 2.89031 12.7787 2.88622 12.7401C2.83986 12.3901 2.79759 12.0406 2.7535 11.6902V11.6579C2.79486 11.6697 2.81986 11.697 2.84758 11.7192C3.10393 11.9124 3.36255 12.1051 3.61753 12.3024C3.67253 12.3419 3.68662 12.3365 3.71434 12.2737C3.83888 11.9688 3.96933 11.6665 4.09795 11.3647L4.1375 11.277C4.29158 11.6406 4.4393 11.9915 4.59201 12.3478L5.5224 11.647M4.59656 6.0528C4.75246 5.96054 4.89926 5.87509 5.06289 5.77691C5.0388 5.93645 5.02107 6.07689 4.99971 6.22006C4.98517 6.31233 4.98335 6.31415 5.07425 6.30142L5.52331 6.23825C5.44105 6.37824 5.36696 6.50868 5.28606 6.6364C5.24879 6.69276 5.25515 6.71094 5.32515 6.72549C5.46923 6.75639 5.61285 6.79821 5.77239 6.83866C5.63967 6.93865 5.51922 7.03137 5.39696 7.1191C5.35151 7.15228 5.33742 7.16864 5.39514 7.20864C5.56513 7.33317 5.56331 7.33635 5.73512 7.21591C6.1701 6.91027 6.50805 6.48603 6.70869 5.99372C6.73414 7.17864 5.77648 8.46082 4.27612 8.54082C2.70759 8.62445 1.55358 7.3509 1.55903 6.00372C1.58403 6.01508 1.58312 6.0419 1.59176 6.06008C1.81496 6.56892 2.18498 6.99955 2.65442 7.29681C2.6935 7.32226 2.72487 7.33045 2.76259 7.29408C2.81077 7.24681 2.90803 7.22 2.90985 7.16182C2.91076 7.12182 2.81531 7.07864 2.76259 7.03728C2.68305 6.97547 2.60306 6.91684 2.52215 6.85593C2.51942 6.85366 2.51942 6.8473 2.51533 6.83639C2.6626 6.7973 2.80804 6.75548 2.95576 6.72367C3.02484 6.70912 3.01666 6.68912 2.98757 6.64004C2.90713 6.51141 2.83213 6.37869 2.7485 6.23825C2.91531 6.26279 3.07439 6.28142 3.22983 6.30824C3.27983 6.31688 3.28528 6.3037 3.27756 6.25961C3.25347 6.10416 3.23392 5.94872 3.20938 5.77691C3.37209 5.87372 3.52072 5.96054 3.67526 6.0528C3.72071 5.88054 3.76343 5.71374 3.81116 5.52875C3.92251 5.67737 4.02569 5.816 4.1375 5.96236C4.24204 5.82055 4.34703 5.68283 4.46157 5.53102L4.59656 6.0528Z" fill="#FEFEFE"/>
</svg>
