<svg width="23" height="23" viewBox="0 0 23 23" fill="none" xmlns="http://www.w3.org/2000/svg">
<path d="M10.3807 0H12.3161L12.6645 0.0581297C15.5145 0.185752 18.325 0.774675 20.9868 1.80202C21.6739 2.06361 22.3417 2.37363 22.9803 2.65459C23.29 10.9478 19.9611 18.243 11.4936 23C7.84041 21.0143 4.79615 18.0703 2.68734 14.484C0.71994 10.8617 -0.19837 6.76143 0.0357926 2.6449C2.60734 1.38795 5.37155 0.57247 8.213 0.232519C8.93878 0.135636 9.65489 0.0775063 10.3807 0ZM11.0581 12.1976L10.8065 11.9263C10.1484 11.1609 9.50006 10.3858 8.87104 9.62047C8.69643 9.43485 8.48573 9.28694 8.25191 9.18584C8.01809 9.08474 7.76609 9.03259 7.5114 9.03259C7.25671 9.03259 7.00471 9.08474 6.77089 9.18584C6.53707 9.28694 6.32638 9.43485 6.15176 9.62047L11.0968 15.3656L18.0256 6.25864C18.0256 6.20051 18.0256 6.17144 17.9579 6.16175C17.7637 6.04182 17.531 6.00108 17.3077 6.04795C17.0844 6.09483 16.8876 6.22573 16.7579 6.41365C15.7902 7.38248 14.8902 8.35131 13.9612 9.25232L11.0581 12.1976Z" fill="#7F79C6"/>
</svg>
